<svg width="187" height="63" viewBox="0 0 187 63" fill="none" xmlns="http://www.w3.org/2000/svg">
<g clip-path="url(#clip0_1816_21879)">
<path d="M171.401 0.332234H14.8387C14.268 0.332234 13.7041 0.332234 13.1349 0.335346C12.6585 0.338459 12.1858 0.347501 11.7048 0.355111C10.6598 0.367408 9.61721 0.459345 8.58616 0.630121C7.55656 0.804616 6.55922 1.13359 5.62786 1.60591C4.69764 2.08223 3.84767 2.70116 3.10878 3.44024C2.36602 4.17724 1.74687 5.02912 1.27514 5.96311C0.802108 6.89524 0.474107 7.89411 0.302463 8.92521C0.129188 9.95501 0.0359476 10.9967 0.0235777 12.0409C0.00913538 12.518 0.00761022 12.9968 0 13.474V49.4463C0.00761022 49.9295 0.00913538 50.3977 0.0235777 50.881C0.0359514 51.9252 0.129192 52.9668 0.302463 53.9966C0.473633 55.0283 0.801654 56.0277 1.27514 56.9602C1.74666 57.8912 2.36589 58.7396 3.10878 59.4725C3.84486 60.2149 4.69538 60.8342 5.62786 61.3069C6.55921 61.7805 7.55645 62.1114 8.58616 62.2886C9.61739 62.458 10.6598 62.55 11.7048 62.5637C12.1858 62.5743 12.6585 62.5804 13.1349 62.5804C13.7041 62.5835 14.268 62.5835 14.8387 62.5835H171.401C171.96 62.5835 172.528 62.5835 173.088 62.5804C173.562 62.5804 174.048 62.5743 174.523 62.5637C175.565 62.5507 176.606 62.4587 177.635 62.2886C178.668 62.1102 179.669 61.7793 180.605 61.3069C181.536 60.8339 182.386 60.2146 183.122 59.4725C183.863 58.7367 184.483 57.8889 184.96 56.9602C185.43 56.027 185.755 55.0277 185.924 53.9966C186.098 52.9667 186.194 51.9253 186.213 50.881C186.219 50.3977 186.219 49.9295 186.219 49.4463C186.231 48.8809 186.231 48.3186 186.231 47.744V15.1731C186.231 14.6032 186.231 14.0378 186.219 13.474C186.219 12.9968 186.219 12.518 186.213 12.0408C186.194 10.9965 186.098 9.95509 185.924 8.92515C185.755 7.89465 185.43 6.89586 184.96 5.96305C184 4.09096 182.477 2.56709 180.605 1.60577C179.669 1.1346 178.668 0.805717 177.635 0.629981C176.606 0.458452 175.566 0.366484 174.523 0.354893C174.048 0.347298 173.562 0.338179 173.088 0.335144C172.528 0.332031 171.96 0.332031 171.401 0.332031V0.332234Z" fill="black"/>
<path d="M13.1433 61.2211C12.6691 61.2211 12.2064 61.2151 11.7359 61.2045C10.7614 61.1918 9.78907 61.107 8.82702 60.9507C7.92997 60.7962 7.06096 60.5088 6.24867 60.098C5.44382 59.6906 4.70974 59.1564 4.07454 58.5159C3.43015 57.8829 2.89366 57.1487 2.48634 56.3425C2.07453 55.5311 1.78954 54.6613 1.64128 53.7634C1.48118 52.7987 1.39455 51.8232 1.38216 50.8454C1.37229 50.5172 1.35938 49.4244 1.35938 49.4244V13.4734C1.35938 13.4734 1.37313 12.3974 1.38224 12.0812C1.3941 11.1049 1.48022 10.131 1.63985 9.16776C1.78838 8.26748 2.07359 7.39519 2.48563 6.58107C2.89145 5.7754 3.42496 5.0407 4.06547 4.40546C4.70526 3.76418 5.44169 3.22724 6.24791 2.81421C7.05833 2.40473 7.92569 2.11936 8.82094 1.96769C9.78614 1.80983 10.7618 1.72448 11.7398 1.71236L13.144 1.69336H173.081L174.502 1.71312C175.471 1.72464 176.438 1.80922 177.394 1.96616C178.298 2.11974 179.175 2.40709 179.995 2.81877C181.61 3.65114 182.924 4.96803 183.753 6.58486C184.158 7.39336 184.439 8.25855 184.586 9.15105C184.747 10.1222 184.838 11.1038 184.856 12.0881C184.861 12.5288 184.861 13.0022 184.861 13.4734C184.873 14.057 184.873 14.6125 184.873 15.1725V47.7434C184.873 48.3088 184.873 48.8605 184.861 49.4167C184.861 49.9229 184.861 50.3865 184.855 50.8636C184.837 51.8303 184.748 52.7944 184.589 53.7482C184.444 54.6525 184.16 55.5291 183.748 56.3472C183.338 57.1447 182.805 57.8724 182.168 58.5037C181.532 59.1477 180.797 59.685 179.99 60.095C179.173 60.509 178.297 60.7974 177.394 60.9507C176.432 61.1078 175.46 61.1926 174.485 61.2045C174.029 61.2151 173.552 61.2211 173.089 61.2211L171.402 61.2243L13.1433 61.2211Z" fill="white"/>
<path d="M38.8987 31.2874C38.9161 29.9366 39.2749 28.6122 39.9417 27.4373C40.6085 26.2624 41.5617 25.2753 42.7125 24.5678C41.9814 23.5237 41.017 22.6645 39.8957 22.0583C38.7745 21.4521 37.5273 21.1158 36.2533 21.0759C33.5357 20.7906 30.9011 22.7021 29.5162 22.7021C28.1045 22.7021 25.9723 21.1042 23.6763 21.1515C22.1911 21.1994 20.7438 21.6313 19.4752 22.405C18.2065 23.1787 17.16 24.2678 16.4374 25.5662C13.3076 30.9851 15.6422 38.9492 18.6404 43.3296C20.1404 45.4745 21.8936 47.8704 24.1875 47.7854C26.4323 47.6923 27.2707 46.354 29.9803 46.354C32.6648 46.354 33.4514 47.7854 35.7919 47.7314C38.2007 47.6923 39.7183 45.577 41.1658 43.4118C42.2436 41.8834 43.0729 40.1943 43.6231 38.4069C42.2237 37.815 41.0295 36.8243 40.1893 35.5582C39.3492 34.2922 38.9003 32.8068 38.8987 31.2874Z" fill="black"/>
<path d="M34.4787 18.1941C35.7921 16.6174 36.4391 14.5909 36.2825 12.5449C34.2759 12.7557 32.4225 13.7146 31.0914 15.2308C30.4406 15.9715 29.9421 16.8331 29.6245 17.7666C29.3069 18.7 29.1764 19.6869 29.2404 20.6708C30.2441 20.6811 31.2369 20.4636 32.1443 20.0346C33.0516 19.6056 33.8498 18.9763 34.4787 18.1941Z" fill="black"/>
<path d="M65.8319 42.5691H58.4654L56.6963 47.7927H53.5762L60.5536 28.4668H63.7953L70.7728 47.7927H67.5994L65.8319 42.5691ZM59.2283 40.1587H65.0675L62.189 31.6812H62.1084L59.2283 40.1587Z" fill="black"/>
<path d="M85.8409 40.7476C85.8409 45.1262 83.4973 47.9393 79.9607 47.9393C79.0649 47.9862 78.1739 47.7798 77.3898 47.3439C76.6058 46.9079 75.9604 46.2599 75.5275 45.4742H75.4606V52.4531H72.5684V33.7018H75.3678V36.0453H75.421C75.8738 35.2633 76.5302 34.6187 77.3202 34.1801C78.1102 33.7415 79.0044 33.5252 79.9075 33.5544C83.4837 33.5544 85.8409 36.3812 85.8409 40.7476ZM82.8681 40.7476C82.8681 37.8949 81.3939 36.0195 79.1446 36.0195C76.9348 36.0195 75.4484 37.9344 75.4484 40.7476C75.4484 43.5866 76.9348 45.4879 79.1446 45.4879C81.3939 45.4879 82.8681 43.6261 82.8681 40.7476H82.8681Z" fill="black"/>
<path d="M101.349 40.7476C101.349 45.1262 99.0051 47.9393 95.4685 47.9393C94.5727 47.9862 93.6817 47.7798 92.8977 47.3439C92.1136 46.9079 91.4682 46.2599 91.0353 45.4742H90.9684V52.4531H88.0762V33.7018H90.8757V36.0453H90.9288C91.3817 35.2633 92.038 34.6187 92.828 34.1801C93.618 33.7415 94.5122 33.5252 95.4153 33.5544C98.9915 33.5544 101.349 36.3812 101.349 40.7476ZM98.3759 40.7476C98.3759 37.8949 96.9017 36.0195 94.6524 36.0195C92.4426 36.0195 90.9563 37.9344 90.9563 40.7476C90.9563 43.5866 92.4426 45.4879 94.6524 45.4879C96.9017 45.4879 98.3759 43.6261 98.3759 40.7476Z" fill="black"/>
<path d="M111.599 42.408C111.814 44.3245 113.675 45.5828 116.22 45.5828C118.657 45.5828 120.411 44.3244 120.411 42.5964C120.411 41.0963 119.353 40.1982 116.849 39.5826L114.344 38.9792C110.795 38.1221 109.148 36.4624 109.148 33.7693C109.148 30.4349 112.054 28.1445 116.179 28.1445C120.264 28.1445 123.063 30.4349 123.157 33.7693H120.238C120.063 31.8407 118.469 30.6765 116.139 30.6765C113.809 30.6765 112.215 31.8544 112.215 33.5687C112.215 34.935 113.233 35.739 115.724 36.3545L117.853 36.8773C121.818 37.815 123.464 39.4078 123.464 42.2346C123.464 45.8502 120.586 48.1147 116.005 48.1147C111.719 48.1147 108.826 45.9034 108.639 42.4079L111.599 42.408Z" fill="black"/>
<path d="M129.708 30.3691V33.7036H132.388V35.9939H129.708V43.7617C129.708 44.9684 130.245 45.5307 131.423 45.5307C131.741 45.5252 132.058 45.5029 132.374 45.4638V47.7405C131.845 47.8394 131.306 47.8842 130.768 47.8742C127.915 47.8742 126.803 46.8028 126.803 44.0701V35.9939H124.754V33.7036H126.803V30.3691H129.708Z" fill="black"/>
<path d="M133.938 40.7494C133.938 36.3161 136.549 33.5303 140.62 33.5303C144.705 33.5303 147.304 36.316 147.304 40.7494C147.304 45.1948 144.719 47.9684 140.62 47.9684C136.523 47.9684 133.938 45.1948 133.938 40.7494ZM144.357 40.7494C144.357 37.7082 142.964 35.9133 140.62 35.9133C138.277 35.9133 136.883 37.7219 136.883 40.7494C136.883 43.8026 138.277 45.5839 140.62 45.5839C142.964 45.5839 144.357 43.8026 144.357 40.7494H144.357Z" fill="black"/>
<path d="M149.689 33.7017H152.448V36.0999H152.515C152.701 35.3509 153.14 34.6889 153.757 34.2253C154.375 33.7617 155.133 33.5248 155.904 33.5542C156.237 33.553 156.57 33.5892 156.895 33.6621V36.3674C156.474 36.2388 156.035 36.1798 155.595 36.1926C155.175 36.1756 154.756 36.2496 154.368 36.4098C153.979 36.5699 153.629 36.8122 153.343 37.1202C153.057 37.4282 152.84 37.7945 152.709 38.1939C152.577 38.5934 152.534 39.0165 152.582 39.4343V47.7918H149.689L149.689 33.7017Z" fill="black"/>
<path d="M170.23 43.6552C169.841 46.2131 167.35 47.9684 164.163 47.9684C160.064 47.9684 157.52 45.2221 157.52 40.8162C157.52 36.3966 160.077 33.5303 164.041 33.5303C167.939 33.5303 170.391 36.2082 170.391 40.4803V41.4713H160.439V41.646C160.393 42.1646 160.458 42.687 160.63 43.1785C160.801 43.6701 161.075 44.1195 161.434 44.497C161.792 44.8744 162.227 45.1713 162.709 45.3679C163.191 45.5644 163.709 45.6562 164.229 45.637C164.913 45.7011 165.599 45.5428 166.185 45.1857C166.771 44.8286 167.227 44.2919 167.483 43.6552L170.23 43.6552ZM160.453 39.4499H167.497C167.523 38.9837 167.452 38.5171 167.289 38.0794C167.126 37.6418 166.875 37.2425 166.55 36.9068C166.226 36.571 165.835 36.3059 165.404 36.1281C164.972 35.9504 164.508 35.8638 164.041 35.8738C163.57 35.871 163.103 35.9615 162.667 36.1401C162.232 36.3186 161.835 36.5818 161.502 36.9142C161.168 37.2467 160.904 37.642 160.724 38.0772C160.544 38.5124 160.452 38.9789 160.453 39.4499V39.4499Z" fill="black"/>
<path d="M58.8698 13.9217C59.4762 13.8782 60.0846 13.9698 60.6513 14.1899C61.218 14.41 61.7287 14.7531 62.1467 15.1945C62.5647 15.6359 62.8795 16.1646 63.0684 16.7424C63.2574 17.3202 63.3157 17.9327 63.2393 18.5358C63.2393 21.5025 61.6359 23.2078 58.8698 23.2078H55.5156V13.9217H58.8698ZM56.9579 21.8945H58.7087C59.142 21.9204 59.5756 21.8494 59.978 21.6866C60.3803 21.5237 60.7413 21.2733 61.0347 20.9533C61.328 20.6334 61.5463 20.2521 61.6737 19.8372C61.8011 19.4223 61.8344 18.9841 61.7711 18.5547C61.8298 18.127 61.7932 17.6916 61.6638 17.2797C61.5345 16.8678 61.3156 16.4896 61.0229 16.1723C60.7302 15.8549 60.371 15.6062 59.9709 15.444C59.5708 15.2817 59.1398 15.21 58.7087 15.2339H56.9579V21.8945Z" fill="black"/>
<path d="M64.8691 19.7015C64.8251 19.241 64.8778 18.7763 65.0238 18.3373C65.1699 17.8983 65.406 17.4947 65.7172 17.1524C66.0284 16.81 66.4077 16.5365 66.8307 16.3493C67.2538 16.1621 67.7113 16.0654 68.174 16.0654C68.6366 16.0654 69.0941 16.1621 69.5172 16.3493C69.9403 16.5365 70.3196 16.81 70.6307 17.1524C70.9419 17.4947 71.1781 17.8983 71.3241 18.3373C71.4702 18.7763 71.5228 19.241 71.4788 19.7015C71.5237 20.1625 71.4716 20.6278 71.326 21.0675C71.1803 21.5072 70.9443 21.9115 70.633 22.2546C70.3218 22.5976 69.9422 22.8717 69.5187 23.0593C69.0952 23.2469 68.6372 23.3438 68.174 23.3438C67.7108 23.3438 67.2527 23.2469 66.8292 23.0593C66.4057 22.8717 66.0261 22.5976 65.7149 22.2546C65.4037 21.9115 65.1676 21.5072 65.022 21.0675C64.8763 20.6278 64.8243 20.1625 64.8691 19.7015ZM70.0562 19.7015C70.0562 18.1825 69.3738 17.2941 68.1762 17.2941C66.9741 17.2941 66.2978 18.1825 66.2978 19.7015C66.2978 21.2327 66.9741 22.1142 68.1762 22.1142C69.3739 22.1142 70.0563 21.2266 70.0563 19.7015H70.0562Z" fill="black"/>
<path d="M80.2641 23.207H78.8294L77.381 18.0458H77.2716L75.8293 23.207H74.4082L72.4766 16.1992H73.8794L75.1347 21.5466H75.2381L76.6788 16.1992H78.0056L79.4464 21.5466H79.5558L80.8051 16.1992H82.1881L80.2641 23.207Z" fill="black"/>
<path d="M83.8125 16.1988H85.1439V17.3121H85.2472C85.4225 16.9122 85.7182 16.577 86.0931 16.3532C86.468 16.1294 86.9033 16.0282 87.3385 16.0635C87.6794 16.0379 88.0218 16.0893 88.3402 16.214C88.6586 16.3386 88.9449 16.5333 89.1779 16.7836C89.4108 17.034 89.5845 17.3335 89.6859 17.66C89.7874 17.9866 89.8141 18.3317 89.7641 18.67V23.2066H88.3811V19.0173C88.3811 17.8911 87.8917 17.3311 86.8688 17.3311C86.6373 17.3203 86.4062 17.3597 86.1914 17.4466C85.9765 17.5335 85.783 17.6658 85.6241 17.8345C85.4651 18.0031 85.3445 18.2042 85.2706 18.4238C85.1966 18.6435 85.171 18.8765 85.1955 19.107V23.2066H83.8125L83.8125 16.1988Z" fill="black"/>
<path d="M91.9688 13.4639H93.3518V23.2073H91.9688V13.4639Z" fill="black"/>
<path d="M95.2734 19.6997C95.2294 19.2391 95.2821 18.7744 95.4282 18.3354C95.5743 17.8964 95.8105 17.4928 96.1217 17.1504C96.4329 16.8081 96.8122 16.5345 97.2353 16.3474C97.6584 16.1602 98.1159 16.0635 98.5786 16.0635C99.0413 16.0635 99.4988 16.1602 99.9219 16.3474C100.345 16.5345 100.724 16.8081 101.036 17.1504C101.347 17.4928 101.583 17.8964 101.729 18.3354C101.875 18.7744 101.928 19.2391 101.884 19.6997C101.929 20.1607 101.877 20.626 101.731 21.0657C101.585 21.5054 101.349 21.9097 101.038 22.2527C100.726 22.5957 100.347 22.8699 99.9234 23.0574C99.4999 23.245 99.0418 23.3419 98.5786 23.3419C98.1154 23.3419 97.6573 23.245 97.2338 23.0574C96.8103 22.8699 96.4307 22.5957 96.1194 22.2527C95.8082 21.9097 95.5721 21.5054 95.4264 21.0657C95.2807 20.626 95.2286 20.1607 95.2734 19.6997ZM100.46 19.6997C100.46 18.1806 99.7781 17.2923 98.5805 17.2923C97.3783 17.2923 96.7021 18.1806 96.7021 19.6997C96.7021 21.2309 97.3784 22.1124 98.5805 22.1124C99.7781 22.1124 100.46 21.2248 100.46 19.6997H100.46Z" fill="black"/>
<path d="M103.34 21.2267C103.34 19.9652 104.279 19.238 105.946 19.1347L107.845 19.0252V18.4204C107.845 17.6802 107.355 17.2623 106.41 17.2623C105.638 17.2623 105.103 17.5457 104.949 18.0412H103.61C103.752 16.8375 104.884 16.0654 106.474 16.0654C108.231 16.0654 109.221 16.9401 109.221 18.4204V23.2085H107.89V22.2237H107.781C107.559 22.577 107.247 22.8649 106.877 23.0582C106.507 23.2516 106.093 23.3433 105.676 23.324C105.382 23.3546 105.084 23.3232 104.803 23.2318C104.522 23.1405 104.263 22.9912 104.042 22.7936C103.822 22.596 103.646 22.3545 103.525 22.0846C103.404 21.8147 103.341 21.5225 103.34 21.2267ZM107.845 20.6279V20.042L106.133 20.1514C105.168 20.216 104.73 20.5443 104.73 21.1621C104.73 21.7928 105.278 22.1598 106.03 22.1598C106.25 22.1821 106.473 22.1599 106.685 22.0944C106.896 22.0289 107.093 21.9215 107.262 21.7785C107.431 21.6356 107.57 21.4601 107.67 21.2624C107.77 21.0647 107.83 20.8489 107.845 20.6279Z" fill="black"/>
<path d="M111.039 19.7004C111.039 17.4861 112.177 16.0833 113.948 16.0833C114.386 16.0631 114.821 16.168 115.201 16.3857C115.582 16.6034 115.892 16.925 116.097 17.3127H116.2V13.4639H117.583V23.2073H116.258V22.1002H116.149C115.928 22.4853 115.607 22.8029 115.219 23.0184C114.831 23.2339 114.391 23.3392 113.948 23.3228C112.165 23.3229 111.039 21.9201 111.039 19.7004ZM112.468 19.7004C112.468 21.1868 113.168 22.0812 114.34 22.0812C115.506 22.0812 116.226 21.1739 116.226 19.7065C116.226 18.246 115.498 17.3257 114.34 17.3257C113.176 17.3257 112.468 18.2262 112.468 19.7004H112.468Z" fill="black"/>
<path d="M123.305 19.7015C123.261 19.241 123.313 18.7763 123.459 18.3373C123.605 17.8983 123.842 17.4947 124.153 17.1524C124.464 16.81 124.843 16.5365 125.266 16.3493C125.689 16.1621 126.147 16.0654 126.61 16.0654C127.072 16.0654 127.53 16.1621 127.953 16.3493C128.376 16.5365 128.755 16.81 129.066 17.1524C129.377 17.4947 129.614 17.8983 129.76 18.3373C129.906 18.7763 129.958 19.241 129.914 19.7015C129.959 20.1625 129.907 20.6278 129.762 21.0675C129.616 21.5072 129.38 21.9115 129.069 22.2546C128.757 22.5976 128.378 22.8717 127.954 23.0593C127.531 23.2469 127.073 23.3438 126.61 23.3438C126.146 23.3438 125.688 23.2469 125.265 23.0593C124.841 22.8717 124.462 22.5976 124.15 22.2546C123.839 21.9115 123.603 21.5072 123.458 21.0675C123.312 20.6278 123.26 20.1625 123.305 19.7015ZM128.492 19.7015C128.492 18.1825 127.809 17.2941 126.612 17.2941C125.41 17.2941 124.733 18.1825 124.733 19.7015C124.733 21.2327 125.41 22.1142 126.612 22.1142C127.809 22.1142 128.492 21.2266 128.492 19.7015Z" fill="black"/>
<path d="M131.771 16.1988H133.103V17.3121H133.206C133.382 16.9122 133.677 16.577 134.052 16.3532C134.427 16.1294 134.862 16.0282 135.297 16.0635C135.638 16.0379 135.981 16.0893 136.299 16.214C136.618 16.3386 136.904 16.5333 137.137 16.7836C137.37 17.034 137.543 17.3335 137.645 17.66C137.746 17.9866 137.773 18.3317 137.723 18.67V23.2066H136.34V19.0173C136.34 17.8911 135.851 17.3311 134.828 17.3311C134.596 17.3203 134.365 17.3597 134.15 17.4466C133.935 17.5335 133.742 17.6658 133.583 17.8345C133.424 18.0031 133.304 18.2042 133.23 18.4238C133.156 18.6435 133.13 18.8765 133.155 19.107V23.2066H131.771V16.1988Z" fill="black"/>
<path d="M145.538 14.4551V16.2317H147.056V17.3967H145.538V21.0001C145.538 21.7342 145.841 22.0556 146.529 22.0556C146.705 22.0551 146.881 22.0444 147.056 22.0237V23.1757C146.808 23.2202 146.556 23.2438 146.304 23.2464C144.766 23.2464 144.154 22.7053 144.154 21.3542V17.3966H143.041V16.2317H144.154V14.4551H145.538Z" fill="black"/>
<path d="M148.945 13.4639H150.316V17.3257H150.426C150.609 16.9221 150.913 16.585 151.296 16.3604C151.678 16.1358 152.12 16.0345 152.562 16.0703C152.902 16.0519 153.241 16.1085 153.555 16.2362C153.87 16.3639 154.153 16.5595 154.384 16.809C154.614 17.0585 154.787 17.3559 154.889 17.6798C154.991 18.0037 155.021 18.3462 154.976 18.6829V23.2074H153.591V19.0241C153.591 17.9047 153.07 17.3378 152.093 17.3378C151.855 17.3183 151.616 17.351 151.392 17.4336C151.169 17.5162 150.966 17.6466 150.797 17.8158C150.629 17.9851 150.5 18.189 150.419 18.4133C150.338 18.6376 150.307 18.8769 150.328 19.1145V23.2073H148.945L148.945 13.4639Z" fill="black"/>
<path d="M163.04 21.3145C162.852 21.955 162.445 22.509 161.89 22.8796C161.335 23.2503 160.667 23.4139 160.003 23.3419C159.542 23.3541 159.083 23.2657 158.659 23.0828C158.235 22.8999 157.856 22.6269 157.548 22.2827C157.239 21.9386 157.01 21.5315 156.875 21.0898C156.74 20.6481 156.703 20.1823 156.766 19.7248C156.705 19.2659 156.743 18.7991 156.877 18.3561C157.012 17.913 157.24 17.5041 157.546 17.1569C157.853 16.8098 158.23 16.5325 158.653 16.3439C159.076 16.1552 159.534 16.0596 159.997 16.0636C161.947 16.0636 163.124 17.3958 163.124 19.5964V20.0789H158.175V20.1564C158.153 20.4136 158.186 20.6725 158.27 20.9164C158.354 21.1604 158.488 21.384 158.664 21.573C158.84 21.7621 159.053 21.9123 159.29 22.014C159.528 22.1158 159.783 22.1669 160.041 22.164C160.372 22.2038 160.707 22.1442 161.004 21.9929C161.301 21.8416 161.546 21.6055 161.709 21.3145L163.04 21.3145ZM158.175 19.0561H161.715C161.732 18.8209 161.7 18.5847 161.621 18.3625C161.542 18.1404 161.417 17.9374 161.254 17.7664C161.092 17.5954 160.895 17.4603 160.678 17.3698C160.46 17.2793 160.225 17.2353 159.99 17.2407C159.75 17.2377 159.513 17.2826 159.292 17.3728C159.07 17.4629 158.869 17.5966 158.7 17.7658C158.53 17.9349 158.397 18.1363 158.307 18.3579C158.217 18.5795 158.172 18.8169 158.175 19.0561H158.175Z" fill="black"/>
</g>
<defs>
<clipPath id="clip0_1816_21879">
<rect width="186.231" height="62.2513" fill="white" transform="translate(0 0.332031)"/>
</clipPath>
</defs>
</svg>
