<svg fill="none" height="63" viewBox="0 0 210 63" width="210" xmlns="http://www.w3.org/2000/svg" xmlns:xlink="http://www.w3.org/1999/xlink"><clipPath id="a"><path d="m.482422.332031h209.517v62.2513h-209.517z"/></clipPath><clipPath id="b"><path d="m.509766.332031h209.517v62.2513h-209.517z"/></clipPath><g clip-path="url(#a)"><g clip-path="url(#b)"><path d="m201.974 62.4287h-193.56724c-4.25848 0-7.742698-3.4842-7.742698-7.7427v-46.45617c0-4.25848 3.484218-7.742693 7.742698-7.742693h193.56724c4.259 0 7.743 3.484213 7.743 7.742693v46.45617c0 4.2585-3.484 7.7427-7.743 7.7427z" fill="#fff"/><path d="m201.974.487137h-193.56724c-4.25848 0-7.742698 3.484213-7.742698 7.742693v46.45617c0 4.2585 3.484218 7.7427 7.742698 7.7427h193.56724c4.259 0 7.743-3.4842 7.743-7.7427v-46.45617c0-4.25848-3.484-7.742693-7.743-7.742693zm0 1.238833c3.587 0 6.504 2.91807 6.504 6.50386v46.45617c0 3.5864-2.917 6.5045-6.504 6.5045h-193.56724c-3.5858 0-6.50387-2.9181-6.50387-6.5045v-46.45617c0-3.58579 2.91807-6.50386 6.50387-6.50386z" fill="#000"/><path d="m32.5916 30.4104-16.4861 17.4981c.0006.0036.0018.0066.0024.0102.5056 1.9 2.241 3.2991 4.3007 3.2991.8233 0 1.5963-.2226 2.2593-.6134l.0526-.0308 18.5572-10.7082z" fill="#eb3131"/><path d="m49.2703 27.4305-.0158-.0108-8.0116-4.6444-9.0261 8.0317 9.0575 9.0563 7.9693-4.5983c1.3973-.7543 2.3457-2.2272 2.3457-3.9257 0-1.6864-.9357-3.152-2.319-3.9088z" fill="#f6b60b"/><path d="m16.1043 14.6976c-.0991.3655-.1512.7483-.1512 1.1458v30.9198c0 .3968.0515.7809.1518 1.145l17.0535-17.0504z" fill="#5778c5"/><path d="m32.7138 31.3027 8.5331-8.5307-18.5361-10.7469c-.6738-.4035-1.4601-.6364-2.3016-.6364-2.0596 0-3.7974 1.4016-4.3031 3.3039-.0006.0018-.0006.0031-.0006.0048z" fill="#3bad49"/></g><g fill="#000"><path d="m74.0679 16.35c0 1.2973-.3842 2.3305-1.1537 3.1012-.874.9164-2.0131 1.375-3.4134 1.375-1.3411 0-2.4813-.4646-3.4189-1.395-.9393-.9297-1.4081-2.0826-1.4081-3.4582 0-1.3761.4688-2.5284 1.4081-3.4588.9376-.9297 2.0778-1.3949 3.4189-1.3949.6654 0 1.3025.1301 1.9073.3896.6049.2602 1.09.6055 1.453 1.038l-.8167.8172c-.6151-.735-1.462-1.1021-2.5436-1.1021-.9781 0-1.8237.3436-2.5375 1.0313-.7138.6885-1.0706 1.5812-1.0706 2.6797 0 1.0986.3568 1.9913 1.0706 2.6798.7138.6877 1.5594 1.0313 2.5375 1.0313 1.0375 0 1.9025-.3455 2.595-1.0373.4496-.4508.7096-1.0774.7791-1.882h-3.3741v-1.116h4.5024c.0435.2426.0647.4755.0647.7012z"/><path d="m74.0684 16.3494h-.1548c-.0012 1.2678-.3715 2.2525-1.1083 2.9918l-.0017.0012-.0006.0013c-.8463.8848-1.934 1.3252-3.3017 1.3271-1.3052-.0019-2.3977-.4471-3.31-1.3496-.9102-.9043-1.3604-2.0083-1.3621-3.3487.0017-1.341.4519-2.4444 1.3621-3.3481.9123-.9031 2.0048-1.3489 3.31-1.3508.6455 0 1.2601.1259 1.8462.3769.5867.2529 1.0502.5843 1.3956.9957l.1186-.0999-.1095-.1094-.8167.8178.1095.1088.1192-.0991c-.6437-.7713-1.5473-1.1602-2.6629-1.1578-1.0143-.0013-1.9065.3611-2.6446 1.075-.7451.7162-1.1196 1.6591-1.1183 2.7909-.0013 1.1318.3732 2.0747 1.1183 2.7909.7381.7139 1.6303 1.0763 2.6446 1.075 1.0719.0019 1.9854-.3617 2.7046-1.0827.4803-.4816.7526-1.1487.8239-1.9781l.0144-.1682h-3.388v-.8063h4.3475v-.1549l-.1525.0273c.0424.2347.0624.4579.0624.6739h.1548.1549c0-.2354-.0218-.4773-.0672-.7289l-.0229-.1271h-4.7867v1.2709.1548h3.5289v-.1548l-.1542-.0134c-.0683.7793-.3163 1.366-.7343 1.7858-.6654.6629-1.482.9902-2.4856.992-.9418-.0012-1.7408-.3255-2.4298-.9878-.6823-.66-1.0217-1.5025-1.0234-2.5684.0017-1.0659.3411-1.9084 1.0234-2.5684.689-.6623 1.488-.9866 2.4298-.9878 1.0472.0024 1.8378.3484 2.4252 1.0471l.1089.1295.9358-.9371.1003-.1003-.0914-.1084c-.3804-.4536-.8873-.8136-1.5104-1.0809-.6242-.268-1.283-.4023-1.9684-.4023-1.3766-.0012-2.5647.4827-3.5283 1.4403-.9672.9558-1.4547 2.1571-1.4535 3.5683-.0012 1.4106.4863 2.6125 1.4541 3.5689.963.957 2.1511 1.4403 3.5277 1.4391 1.4337.0012 2.623-.475 3.5254-1.4228l-.1119-.107.1095.1094c.8021-.8015 1.2001-1.8842 1.199-3.2107z"/><path d="m81.2053 12.4684h-4.2312v2.9459h3.8157v1.1165h-3.8157v2.9459h4.2312v1.1415h-5.4241v-9.2913h5.4241z"/><path d="m81.2059 12.4688v-.1549h-4.3861v3.2557h3.8158v.8063l-3.8158.0005v3.2556h4.2312v.8317h-5.1143v-8.9815h5.1143v.9866h.1549v-.1549.1549h.1548v-1.1415-.1548h-5.7337v9.6009h5.7337v-1.2962-.1549h-4.2312v-2.6362h3.8158v-1.2714-.1548h-3.8158v-2.6363h4.2312v-.1548z"/><path d="m86.2409 20.6182h-1.1947v-8.1498h-2.595v-1.1415h6.3848v1.1415h-2.5951z"/><path d="m86.2395 20.6186v-.1549h-1.0398v-8.1498h-2.5951v-.8317h6.0751v.8317h-2.595v8.3047h.1548v-.1549.1549h.1549v-7.995h2.595v-1.2963-.1548h-6.6945v1.2963.1548h2.5951v8.1498h1.3495.1549v-.1548z"/><path d="m93.4551 20.6182v-9.2913h1.1934v9.2913z"/><path d="m93.4556 20.6186h.1549v-9.1364h.8837v8.9815h-1.0386v.1549h.1549-.1549v.1548h1.1935.1548v-9.6009h-1.3483-.1548v9.6009h.1548z"/><path d="m99.9439 20.6182h-1.1947v-8.1498h-2.5949v-1.1415h6.3847v1.1415h-2.5951z"/><path d="m99.9444 20.6186v-.1549h-1.0398v-8.1498h-2.5949v-.8317h6.0753v.8317h-2.5954v8.3047h.1548v-.1549.1549h.1546v-7.995h2.595v-1.2963-.1548h-6.694v1.2963.1548h2.5949v8.1498h1.3495.1546v-.1548z"/><path d="m108.695 18.6401c.688.6962 1.53 1.044 2.525 1.044s1.837-.3478 2.523-1.044c.689-.6962 1.034-1.5862 1.034-2.6671 0-1.0808-.345-1.9708-1.034-2.667-.686-.6962-1.528-1.044-2.523-1.044s-1.837.3478-2.525 1.044c-.686.6962-1.031 1.5862-1.031 2.667 0 1.0809.345 1.9709 1.031 2.6671zm5.932.7778c-.914.9394-2.05 1.4083-3.407 1.4083-1.359 0-2.494-.4689-3.406-1.4083-.914-.9382-1.369-2.0868-1.369-3.4449 0-1.358.455-2.5067 1.369-3.4448.912-.9395 2.047-1.4089 3.406-1.4089 1.35 0 2.483.4718 3.4 1.4149s1.375 2.0893 1.375 3.4388c0 1.3581-.457 2.5067-1.368 3.4449z"/><path d="m108.694 18.6395-.11.1089c.713.7241 1.603 1.0919 2.634 1.09 1.031.0019 1.922-.3659 2.634-1.09.718-.7247 1.079-1.6624 1.078-2.7759.001-1.1136-.36-2.0512-1.078-2.7759-.712-.7241-1.603-1.0919-2.634-1.09-1.031-.0019-1.921.3659-2.634 1.09-.716.7247-1.078 1.6623-1.076 2.7759-.002 1.1135.36 2.0512 1.076 2.7759l.11-.1089.11-.1088c-.657-.6685-.985-1.5094-.986-2.5582.001-1.0488.329-1.8897.986-2.5582.663-.6683 1.455-.9962 2.414-.998.959.0018 1.753.3297 2.414.998.658.6685.987 1.5094.988 2.5582-.001 1.0488-.33 1.8897-.988 2.5582-.661.6683-1.455.9962-2.414.998-.959-.0018-1.751-.3297-2.414-.998zm5.931.7779-.111-.1077c-.887.9098-1.973 1.3592-3.296 1.3611-1.323-.0019-2.408-.4513-3.295-1.3611l-.004-.0048.004.0048c-.886-.9128-1.323-2.0137-1.324-3.3372.001-1.3235.438-2.4244 1.324-3.3373.887-.9097 1.972-1.3597 3.295-1.3616 1.314.0019 2.398.4537 3.29 1.3683.89.917 1.329 2.0162 1.331 3.3306-.002 1.3235-.44 2.4244-1.325 3.3372l.111.1077.112.1076c.938-.9641 1.413-2.1601 1.412-3.5525.001-1.3846-.476-2.578-1.419-3.5465-.943-.9721-2.125-1.4638-3.512-1.4621-1.393-.0017-2.579.4876-3.517 1.4561v-.0006c-.94.9647-1.413 2.1606-1.412 3.5531-.001 1.3924.472 2.5884 1.412 3.5531l.005.0043-.005-.0049c.938.9685 2.124 1.4567 3.517 1.4555 1.393.0012 2.579-.487 3.519-1.4555z"/><path d="m117.67 20.6182v-9.2913h1.453l4.515 7.228h.052l-.052-1.7906v-5.4374h1.195v9.2913h-1.246l-4.724-7.5783h-.052l.052 1.7912v5.7871z"/><path d="m117.67 20.6186h.155v-9.1364h1.213l4.515 7.228h.137.159l-.055-1.9478v-5.2802h.885v8.9815h-1.005l-4.725-7.5782h-.137-.159l.055 1.9485v5.6297h-1.038v.1549h.155-.155v.1548h1.193.155v-5.9443l-.051-1.7929-.155.0041v.1549h.051v-.1549l-.131.0824 4.77 7.6507h1.332.155v-9.6009h-1.35-.155v5.5941l.052 1.7929.154-.0042v-.1548h-.051v.1548l.131-.0822-4.561-7.3006h-1.539-.154v9.6009h.154z"/><path d="m166.233 46.9437h2.89v-19.3586h-2.89zm26.026-12.3852-3.312 8.3929h-.099l-3.438-8.3929h-3.112l5.155 11.7306-2.939 6.5251h3.015l7.944-18.2557zm-16.386 10.1864c-.948 0-2.267-.473-2.267-1.6441 0-1.4941 1.644-2.0669 3.063-2.0669 1.271 0 1.867.2739 2.64.6479-.225 1.7929-1.768 3.0631-3.436 3.0631zm.348-10.6099c-2.092 0-4.258.9218-5.155 2.964l2.565 1.0707c.548-1.0707 1.568-1.4197 2.64-1.4197 1.494 0 3.013.897 3.038 2.491v.1989c-.523-.2988-1.643-.747-3.013-.747-2.765 0-5.58 1.5188-5.58 4.3582 0 2.5903 2.267 4.2591 4.807 4.2591 1.943 0 3.013-.8716 3.687-1.8926h.099v1.494h2.789v-7.4221c0-3.4364-2.564-5.3545-5.877-5.3545zm-17.858 2.7801h-4.109v-6.6357h4.109c2.161 0 3.387 1.7886 3.387 3.3178 0 1.5002-1.226 3.3179-3.387 3.3179zm-.074-9.33h-6.923v19.3586h2.888v-7.3343h4.035c3.203 0 6.351-2.3187 6.351-6.0122s-3.148-6.0121-6.351-6.0121zm-37.755 17.1634c-1.996 0-3.667-1.6713-3.667-3.9669 0-2.3197 1.671-4.0164 3.667-4.0164 1.971 0 3.518 1.6967 3.518 4.0164 0 2.2956-1.547 3.9669-3.518 3.9669zm3.318-9.106h-.1c-.648-.7732-1.896-1.4718-3.468-1.4718-3.293 0-6.311 2.8938-6.311 6.6109 0 3.6923 3.018 6.5613 6.311 6.5613 1.572 0 2.82-.6987 3.468-1.4965h.1v.9479c0 2.5201-1.347 3.8671-3.517 3.8671-1.772 0-2.869-1.2727-3.319-2.3452l-2.519 1.0477c.723 1.7463 2.644 3.892 5.838 3.892 3.392 0 6.261-1.9963 6.261-6.8608v-11.8252h-2.744zm4.74 11.3012h2.894v-19.3592h-2.894zm7.16-6.3865c-.075-2.5449 1.971-3.8418 3.443-3.8418 1.148 0 2.121.5735 2.444 1.3974zm8.981-2.1952c-.548-1.4723-2.22-4.1913-5.638-4.1913-3.393 0-6.212 2.6694-6.212 6.5861 0 3.6924 2.794 6.5861 6.536 6.5861 3.019 0 4.766-1.8462 5.489-2.9187l-2.245-1.4971c-.748 1.0979-1.772 1.8214-3.244 1.8214s-2.519-.6738-3.193-1.9956l8.806-3.6426zm-70.1613-2.1704v2.794h6.6858c-.1996 1.5716-.7235 2.7191-1.5219 3.5175-.9727.9733-2.4946 2.0458-5.1639 2.0458-4.1165 0-7.3345-3.3179-7.3345-7.4342 0-4.1164 3.218-7.4347 7.3345-7.4347 2.2204 0 3.8416.8733 5.0392 1.996l1.9709-1.9706c-1.6714-1.597-3.892-2.8195-7.0101-2.8195-5.6384 0-10.3783 4.5905-10.3783 10.2288 0 5.6382 4.7399 10.2282 10.3783 10.2282 3.0438 0 5.3387-.9974 7.1347-2.869 1.8462-1.8461 2.4202-4.4406 2.4202-6.5359 0-.6491-.0497-1.2473-.15-1.7464zm17.1561 8.5569c-1.9962 0-3.7177-1.6466-3.7177-3.9917 0-2.37 1.7215-3.9916 3.7177-3.9916 1.9954 0 3.7169 1.6216 3.7169 3.9916 0 2.3451-1.7215 3.9917-3.7169 3.9917zm0-10.5778c-3.6428 0-6.6117 2.7691-6.6117 6.5861 0 3.7921 2.9689 6.5861 6.6117 6.5861 3.642 0 6.6109-2.794 6.6109-6.5861 0-3.817-2.9689-6.5861-6.6109-6.5861zm14.4222 10.5778c-1.996 0-3.717-1.6466-3.717-3.9917 0-2.37 1.721-3.9916 3.717-3.9916 1.995 0 3.717 1.6216 3.717 3.9916 0 2.3451-1.722 3.9917-3.717 3.9917zm0-10.5778c-3.643 0-6.6112 2.7691-6.6112 6.5861 0 3.7921 2.9682 6.5861 6.6112 6.5861 3.642 0 6.611-2.794 6.611-6.5861 0-3.817-2.969-6.5861-6.611-6.5861z"/></g></g></svg>